<mxfile host="app.diagrams.net" modified="2021-03-29T11:49:55.043Z" agent="5.0 (Windows)" etag="bTykSMVlbyyG3ABdT8fm" version="14.5.3" type="github">
  <diagram id="ouq_CFNdriJKqo0sy_W-" name="Page-1">
    <mxGraphModel dx="1422" dy="773" grid="1" gridSize="10" guides="1" tooltips="1" connect="1" arrows="1" fold="1" page="1" pageScale="1" pageWidth="1100" pageHeight="850" math="0" shadow="0">
      <root>
        <mxCell id="0" />
        <mxCell id="1" parent="0" />
        <mxCell id="cNdNB8oOOkSkSs40HRs3-26" style="edgeStyle=orthogonalEdgeStyle;rounded=0;orthogonalLoop=1;jettySize=auto;html=1;exitX=1;exitY=0.5;exitDx=0;exitDy=0;entryX=0;entryY=0.5;entryDx=0;entryDy=0;" edge="1" parent="1" source="cNdNB8oOOkSkSs40HRs3-7" target="cNdNB8oOOkSkSs40HRs3-17">
          <mxGeometry relative="1" as="geometry" />
        </mxCell>
        <mxCell id="cNdNB8oOOkSkSs40HRs3-27" style="edgeStyle=orthogonalEdgeStyle;rounded=0;orthogonalLoop=1;jettySize=auto;html=1;exitX=1;exitY=0.5;exitDx=0;exitDy=0;entryX=0;entryY=0.5;entryDx=0;entryDy=0;" edge="1" parent="1" source="cNdNB8oOOkSkSs40HRs3-8" target="cNdNB8oOOkSkSs40HRs3-18">
          <mxGeometry relative="1" as="geometry" />
        </mxCell>
        <mxCell id="cNdNB8oOOkSkSs40HRs3-28" style="edgeStyle=orthogonalEdgeStyle;rounded=0;orthogonalLoop=1;jettySize=auto;html=1;exitX=1;exitY=0.5;exitDx=0;exitDy=0;entryX=0;entryY=0.5;entryDx=0;entryDy=0;" edge="1" parent="1" source="cNdNB8oOOkSkSs40HRs3-9" target="cNdNB8oOOkSkSs40HRs3-19">
          <mxGeometry relative="1" as="geometry" />
        </mxCell>
        <mxCell id="cNdNB8oOOkSkSs40HRs3-10" value="Public API Box" style="swimlane;" vertex="1" parent="1">
          <mxGeometry x="920" y="30" width="160" height="290" as="geometry" />
        </mxCell>
        <mxCell id="cNdNB8oOOkSkSs40HRs3-12" value="Customer API" style="swimlane;fontStyle=0;childLayout=stackLayout;horizontal=1;startSize=26;fillColor=none;horizontalStack=0;resizeParent=1;resizeParentMax=0;resizeLast=0;collapsible=1;marginBottom=0;" vertex="1" parent="cNdNB8oOOkSkSs40HRs3-10">
          <mxGeometry x="10" y="30" width="140" height="104" as="geometry" />
        </mxCell>
        <mxCell id="cNdNB8oOOkSkSs40HRs3-13" value=":8082/" style="text;strokeColor=none;fillColor=none;align=left;verticalAlign=top;spacingLeft=4;spacingRight=4;overflow=hidden;rotatable=0;points=[[0,0.5],[1,0.5]];portConstraint=eastwest;" vertex="1" parent="cNdNB8oOOkSkSs40HRs3-12">
          <mxGeometry y="26" width="140" height="26" as="geometry" />
        </mxCell>
        <mxCell id="cNdNB8oOOkSkSs40HRs3-14" value=":9082/green_version/" style="text;strokeColor=none;fillColor=none;align=left;verticalAlign=top;spacingLeft=4;spacingRight=4;overflow=hidden;rotatable=0;points=[[0,0.5],[1,0.5]];portConstraint=eastwest;" vertex="1" parent="cNdNB8oOOkSkSs40HRs3-12">
          <mxGeometry y="52" width="140" height="26" as="geometry" />
        </mxCell>
        <mxCell id="cNdNB8oOOkSkSs40HRs3-15" value=":9082/blue_version/" style="text;strokeColor=none;fillColor=none;align=left;verticalAlign=top;spacingLeft=4;spacingRight=4;overflow=hidden;rotatable=0;points=[[0,0.5],[1,0.5]];portConstraint=eastwest;" vertex="1" parent="cNdNB8oOOkSkSs40HRs3-12">
          <mxGeometry y="78" width="140" height="26" as="geometry" />
        </mxCell>
        <mxCell id="cNdNB8oOOkSkSs40HRs3-16" value="Catalog API" style="swimlane;fontStyle=0;childLayout=stackLayout;horizontal=1;startSize=26;fillColor=none;horizontalStack=0;resizeParent=1;resizeParentMax=0;resizeLast=0;collapsible=1;marginBottom=0;" vertex="1" parent="cNdNB8oOOkSkSs40HRs3-10">
          <mxGeometry x="10" y="160" width="140" height="104" as="geometry" />
        </mxCell>
        <mxCell id="cNdNB8oOOkSkSs40HRs3-17" value=":8080/" style="text;strokeColor=none;fillColor=none;align=left;verticalAlign=top;spacingLeft=4;spacingRight=4;overflow=hidden;rotatable=0;points=[[0,0.5],[1,0.5]];portConstraint=eastwest;" vertex="1" parent="cNdNB8oOOkSkSs40HRs3-16">
          <mxGeometry y="26" width="140" height="26" as="geometry" />
        </mxCell>
        <mxCell id="cNdNB8oOOkSkSs40HRs3-18" value=":9080/green_version/" style="text;strokeColor=none;fillColor=none;align=left;verticalAlign=top;spacingLeft=4;spacingRight=4;overflow=hidden;rotatable=0;points=[[0,0.5],[1,0.5]];portConstraint=eastwest;" vertex="1" parent="cNdNB8oOOkSkSs40HRs3-16">
          <mxGeometry y="52" width="140" height="26" as="geometry" />
        </mxCell>
        <mxCell id="cNdNB8oOOkSkSs40HRs3-19" value=":9080/blue_version/" style="text;strokeColor=none;fillColor=none;align=left;verticalAlign=top;spacingLeft=4;spacingRight=4;overflow=hidden;rotatable=0;points=[[0,0.5],[1,0.5]];portConstraint=eastwest;" vertex="1" parent="cNdNB8oOOkSkSs40HRs3-16">
          <mxGeometry y="78" width="140" height="26" as="geometry" />
        </mxCell>
        <mxCell id="cNdNB8oOOkSkSs40HRs3-31" style="edgeStyle=orthogonalEdgeStyle;rounded=0;orthogonalLoop=1;jettySize=auto;html=1;exitX=1;exitY=0.5;exitDx=0;exitDy=0;entryX=0;entryY=0.5;entryDx=0;entryDy=0;" edge="1" parent="1" source="cNdNB8oOOkSkSs40HRs3-23" target="cNdNB8oOOkSkSs40HRs3-13">
          <mxGeometry relative="1" as="geometry" />
        </mxCell>
        <mxCell id="cNdNB8oOOkSkSs40HRs3-30" style="edgeStyle=orthogonalEdgeStyle;rounded=0;orthogonalLoop=1;jettySize=auto;html=1;exitX=1;exitY=0.5;exitDx=0;exitDy=0;entryX=0;entryY=0.5;entryDx=0;entryDy=0;" edge="1" parent="1" source="cNdNB8oOOkSkSs40HRs3-24" target="cNdNB8oOOkSkSs40HRs3-14">
          <mxGeometry relative="1" as="geometry" />
        </mxCell>
        <mxCell id="cNdNB8oOOkSkSs40HRs3-29" style="edgeStyle=orthogonalEdgeStyle;rounded=0;orthogonalLoop=1;jettySize=auto;html=1;exitX=1;exitY=0.5;exitDx=0;exitDy=0;entryX=0;entryY=0.5;entryDx=0;entryDy=0;" edge="1" parent="1" source="cNdNB8oOOkSkSs40HRs3-25" target="cNdNB8oOOkSkSs40HRs3-15">
          <mxGeometry relative="1" as="geometry" />
        </mxCell>
        <mxCell id="cNdNB8oOOkSkSs40HRs3-34" style="edgeStyle=orthogonalEdgeStyle;rounded=0;orthogonalLoop=1;jettySize=auto;html=1;exitX=1;exitY=0.5;exitDx=0;exitDy=0;entryX=0;entryY=0.5;entryDx=0;entryDy=0;" edge="1" parent="1" source="cNdNB8oOOkSkSs40HRs3-32" target="cNdNB8oOOkSkSs40HRs3-23">
          <mxGeometry relative="1" as="geometry" />
        </mxCell>
        <mxCell id="cNdNB8oOOkSkSs40HRs3-35" style="edgeStyle=orthogonalEdgeStyle;rounded=0;orthogonalLoop=1;jettySize=auto;html=1;exitX=1;exitY=0.5;exitDx=0;exitDy=0;entryX=0;entryY=0.5;entryDx=0;entryDy=0;" edge="1" parent="1" source="cNdNB8oOOkSkSs40HRs3-32" target="cNdNB8oOOkSkSs40HRs3-24">
          <mxGeometry relative="1" as="geometry" />
        </mxCell>
        <mxCell id="cNdNB8oOOkSkSs40HRs3-36" style="edgeStyle=orthogonalEdgeStyle;rounded=0;orthogonalLoop=1;jettySize=auto;html=1;exitX=1;exitY=0.5;exitDx=0;exitDy=0;entryX=0;entryY=0.5;entryDx=0;entryDy=0;" edge="1" parent="1" source="cNdNB8oOOkSkSs40HRs3-32" target="cNdNB8oOOkSkSs40HRs3-25">
          <mxGeometry relative="1" as="geometry" />
        </mxCell>
        <mxCell id="cNdNB8oOOkSkSs40HRs3-37" style="edgeStyle=orthogonalEdgeStyle;rounded=0;orthogonalLoop=1;jettySize=auto;html=1;exitX=1;exitY=0.5;exitDx=0;exitDy=0;entryX=0;entryY=0.5;entryDx=0;entryDy=0;" edge="1" parent="1" source="cNdNB8oOOkSkSs40HRs3-33" target="cNdNB8oOOkSkSs40HRs3-7">
          <mxGeometry relative="1" as="geometry" />
        </mxCell>
        <mxCell id="cNdNB8oOOkSkSs40HRs3-38" style="edgeStyle=orthogonalEdgeStyle;rounded=0;orthogonalLoop=1;jettySize=auto;html=1;exitX=1;exitY=0.5;exitDx=0;exitDy=0;entryX=0;entryY=0.5;entryDx=0;entryDy=0;" edge="1" parent="1" source="cNdNB8oOOkSkSs40HRs3-33" target="cNdNB8oOOkSkSs40HRs3-8">
          <mxGeometry relative="1" as="geometry" />
        </mxCell>
        <mxCell id="cNdNB8oOOkSkSs40HRs3-39" style="edgeStyle=orthogonalEdgeStyle;rounded=0;orthogonalLoop=1;jettySize=auto;html=1;exitX=1;exitY=0.5;exitDx=0;exitDy=0;entryX=0;entryY=0.5;entryDx=0;entryDy=0;" edge="1" parent="1" source="cNdNB8oOOkSkSs40HRs3-33" target="cNdNB8oOOkSkSs40HRs3-9">
          <mxGeometry relative="1" as="geometry" />
        </mxCell>
        <mxCell id="cNdNB8oOOkSkSs40HRs3-40" value="Route 53" style="swimlane;" vertex="1" parent="1">
          <mxGeometry x="380" y="30" width="480" height="290" as="geometry" />
        </mxCell>
        <mxCell id="cNdNB8oOOkSkSs40HRs3-9" value="&lt;p align=&quot;left&quot;&gt;&lt;code&gt;{envinroment_tag}-api-cat-blue.{dns_zone}&lt;/code&gt;&lt;/p&gt;" style="rounded=0;whiteSpace=wrap;html=1;align=left;" vertex="1" parent="cNdNB8oOOkSkSs40HRs3-40">
          <mxGeometry x="70" y="250" width="350" height="30" as="geometry" />
        </mxCell>
        <mxCell id="cNdNB8oOOkSkSs40HRs3-8" value="&lt;p align=&quot;left&quot;&gt;&lt;code&gt;{envinroment_tag}-api-cat-green.{dns_zone}&lt;/code&gt;&lt;/p&gt;" style="rounded=0;whiteSpace=wrap;html=1;align=left;" vertex="1" parent="cNdNB8oOOkSkSs40HRs3-40">
          <mxGeometry x="70" y="210" width="350" height="30" as="geometry" />
        </mxCell>
        <mxCell id="cNdNB8oOOkSkSs40HRs3-7" value="&lt;font style=&quot;font-size: 12px&quot;&gt;&lt;code&gt;{envinroment_tag}.&lt;strong&gt;api-public.sports&lt;/strong&gt;.{dns_zone}&lt;/code&gt;&lt;/font&gt;" style="rounded=0;whiteSpace=wrap;html=1;" vertex="1" parent="cNdNB8oOOkSkSs40HRs3-40">
          <mxGeometry x="70" y="170" width="350" height="30" as="geometry" />
        </mxCell>
        <mxCell id="cNdNB8oOOkSkSs40HRs3-25" value="&lt;p&gt;&lt;code&gt;{envinroment_tag}-api-cust-blue.{dns_zone}&lt;/code&gt;&lt;/p&gt;" style="rounded=0;whiteSpace=wrap;html=1;align=left;" vertex="1" parent="cNdNB8oOOkSkSs40HRs3-40">
          <mxGeometry x="70" y="115" width="350" height="30" as="geometry" />
        </mxCell>
        <mxCell id="cNdNB8oOOkSkSs40HRs3-24" value="&lt;code&gt;{envinroment_tag}-api-cust-green.{dns_zone}&lt;/code&gt;" style="rounded=0;whiteSpace=wrap;html=1;align=left;" vertex="1" parent="cNdNB8oOOkSkSs40HRs3-40">
          <mxGeometry x="70" y="70" width="350" height="30" as="geometry" />
        </mxCell>
        <mxCell id="cNdNB8oOOkSkSs40HRs3-23" value="&lt;font style=&quot;font-size: 12px&quot;&gt;&lt;code&gt;{envinroment_tag}.&lt;strong&gt;api-public.sports&lt;/strong&gt;.{dns_zone}&lt;/code&gt;&lt;/font&gt;" style="rounded=0;whiteSpace=wrap;html=1;" vertex="1" parent="cNdNB8oOOkSkSs40HRs3-40">
          <mxGeometry x="70" y="30" width="350" height="30" as="geometry" />
        </mxCell>
        <mxCell id="cNdNB8oOOkSkSs40HRs3-41" value="Fastly" style="swimlane;" vertex="1" parent="1">
          <mxGeometry x="30" y="30" width="310" height="290" as="geometry" />
        </mxCell>
        <mxCell id="cNdNB8oOOkSkSs40HRs3-32" value="&lt;div&gt;&lt;code&gt;*cust-api.tmtickets.co.uk/{API_Version}/&lt;/code&gt;&lt;/div&gt;" style="rounded=0;whiteSpace=wrap;html=1;" vertex="1" parent="cNdNB8oOOkSkSs40HRs3-41">
          <mxGeometry x="10" y="55" width="290" height="60" as="geometry" />
        </mxCell>
        <mxCell id="cNdNB8oOOkSkSs40HRs3-33" value="&lt;code&gt;*cat-api.tmtickets.co.uk/{API_Version}/&lt;/code&gt;" style="rounded=0;whiteSpace=wrap;html=1;" vertex="1" parent="cNdNB8oOOkSkSs40HRs3-41">
          <mxGeometry x="10" y="195" width="290" height="60" as="geometry" />
        </mxCell>
      </root>
    </mxGraphModel>
  </diagram>
</mxfile>
